<?xml version="1.0" encoding="UTF-8" standalone="no"?>
<!DOCTYPE svg PUBLIC "-//W3C//DTD SVG 1.1//EN"
 "http://www.w3.org/Graphics/SVG/1.1/DTD/svg11.dtd">
<!-- Generated by graphviz version 2.38.0 (20140413.2041)
 -->
<!-- Title: ml Pages: 1 -->
<svg width="1546pt" height="996pt"
 viewBox="0.00 0.00 1546.00 996.00" xmlns="http://www.w3.org/2000/svg" xmlns:xlink="http://www.w3.org/1999/xlink">
<g id="graph0" class="graph" transform="scale(1 1) rotate(0) translate(4 992)">
<title>ml</title>
<polygon fill="white" stroke="none" points="-4,4 -4,-992 1542,-992 1542,4 -4,4"/>
<!-- ndBuild -->
<g id="node1" class="node"><title>ndBuild</title>
<polygon fill="none" stroke="black" points="482.5,-301.5 482.5,-535.5 869.5,-535.5 869.5,-301.5 482.5,-301.5"/>
<text text-anchor="middle" x="676" y="-520.3" font-family="Times,serif" font-size="14.00">&lt;&lt;&lt;Structure&gt;&gt;&gt;</text>
<text text-anchor="middle" x="676" y="-505.3" font-family="Times,serif" font-size="14.00">Build</text>
<polyline fill="none" stroke="black" points="482.5,-497.5 869.5,-497.5 "/>
<text text-anchor="middle" x="676" y="-482.3" font-family="Times,serif" font-size="14.00">&#45; timestamp: DateTime&lt;Utc&gt;</text>
<text text-anchor="middle" x="676" y="-467.3" font-family="Times,serif" font-size="14.00">&#45; target: Target</text>
<text text-anchor="middle" x="676" y="-452.3" font-family="Times,serif" font-size="14.00">&#45; ci_platform: Option&lt;ContinuousIntegrationPlatform&gt;</text>
<text text-anchor="middle" x="676" y="-437.3" font-family="Times,serif" font-size="14.00">&#45; compilation: Compilation</text>
<text text-anchor="middle" x="676" y="-422.3" font-family="Times,serif" font-size="14.00">&#45; git_version: Option&lt;GitVersion&gt;</text>
<text text-anchor="middle" x="676" y="-407.3" font-family="Times,serif" font-size="14.00">&#45; package: Package</text>
<polyline fill="none" stroke="black" points="482.5,-399.5 869.5,-399.5 "/>
<text text-anchor="middle" x="676" y="-384.3" font-family="Times,serif" font-size="14.00">+ timestamp(&amp;self) &#45;&gt; DateTime&lt;Utc&gt;</text>
<text text-anchor="middle" x="676" y="-369.3" font-family="Times,serif" font-size="14.00">+ target(&amp;self) &#45;&gt; &amp;Target</text>
<text text-anchor="middle" x="676" y="-354.3" font-family="Times,serif" font-size="14.00">+ ci_platform(&amp;self) &#45;&gt; Option&lt;&amp;ContinuousIntegrationPlatform&gt;</text>
<text text-anchor="middle" x="676" y="-339.3" font-family="Times,serif" font-size="14.00">+ compilation(&amp;self) &#45;&gt; &amp;Compilation</text>
<text text-anchor="middle" x="676" y="-324.3" font-family="Times,serif" font-size="14.00">+ git_version(&amp;self) &#45;&gt; Option&lt;&amp;GitVersion&gt;</text>
<text text-anchor="middle" x="676" y="-309.3" font-family="Times,serif" font-size="14.00">+ package(&amp;self) &#45;&gt; &amp;Package</text>
</g>
<!-- ndBuildBuilder -->
<g id="node2" class="node"><title>ndBuildBuilder</title>
<polygon fill="none" stroke="black" points="0,-0.5 0,-264.5 908,-264.5 908,-0.5 0,-0.5"/>
<text text-anchor="middle" x="454" y="-249.3" font-family="Times,serif" font-size="14.00">&lt;&lt;&lt;Structure&gt;&gt;&gt;</text>
<text text-anchor="middle" x="454" y="-234.3" font-family="Times,serif" font-size="14.00">BuildBuilder</text>
<polyline fill="none" stroke="black" points="0,-226.5 908,-226.5 "/>
<text text-anchor="middle" x="454" y="-211.3" font-family="Times,serif" font-size="14.00">&#45; timestamp: Option&lt;DateTime&lt;Utc&gt;&gt;</text>
<text text-anchor="middle" x="454" y="-196.3" font-family="Times,serif" font-size="14.00">&#45; target: Option&lt;Target&gt;</text>
<text text-anchor="middle" x="454" y="-181.3" font-family="Times,serif" font-size="14.00">&#45; ci_platform: Option&lt;ContinuousIntegrationPlatform&gt;</text>
<text text-anchor="middle" x="454" y="-166.3" font-family="Times,serif" font-size="14.00">&#45; compilation: Option&lt;Compilation&gt;</text>
<text text-anchor="middle" x="454" y="-151.3" font-family="Times,serif" font-size="14.00">&#45; git_version: Option&lt;GitVersion&gt;</text>
<text text-anchor="middle" x="454" y="-136.3" font-family="Times,serif" font-size="14.00">&#45; package: Option&lt;Package&gt;</text>
<polyline fill="none" stroke="black" points="0,-128.5 908,-128.5 "/>
<text text-anchor="middle" x="454" y="-113.3" font-family="Times,serif" font-size="14.00">+ new() &#45;&gt; BuildBuilder</text>
<text text-anchor="middle" x="454" y="-98.3" font-family="Times,serif" font-size="14.00">+ timestamp(&amp;mut self, timestamp: DateTime&lt;Utc&gt;)</text>
<text text-anchor="middle" x="454" y="-83.3" font-family="Times,serif" font-size="14.00">+ target(&amp;mut self, triple: TargetTriple, env: TargetEnv, os: TargetOperatingSystem, arch: TargetArchitecture, endian: Endian, pointer_width: PointerWidth)</text>
<text text-anchor="middle" x="454" y="-68.3" font-family="Times,serif" font-size="14.00">+ ci_platform(&amp;mut self, ci: ContinuousIntegrationPlatform)</text>
<text text-anchor="middle" x="454" y="-53.3" font-family="Times,serif" font-size="14.00">+ compilation(&amp;mut self, debug: bool, features: Vec&lt;String&gt;, opt_level: CompileOptLevel, rustc_version: RustcVersion, host: TargetTriple, profile: BuildProfile)</text>
<text text-anchor="middle" x="454" y="-38.3" font-family="Times,serif" font-size="14.00">+ git_version(&amp;mut self, ver: GitVersion)</text>
<text text-anchor="middle" x="454" y="-23.3" font-family="Times,serif" font-size="14.00">+ package(&amp;mut self, name: String, authors: Vec&lt;String&gt;, description: String, version: semver::Version, homepage: String, dependencies: Vec&lt;PackageId&gt;)</text>
<text text-anchor="middle" x="454" y="-8.3" font-family="Times,serif" font-size="14.00">+ build(self) &#45;&gt; Build</text>
</g>
<!-- ndBuild&#45;&gt;ndBuildBuilder -->
<g id="edge1" class="edge"><title>ndBuild&#45;&gt;ndBuildBuilder</title>
<path fill="none" stroke="black" d="M585.064,-301.167C577.767,-291.832 570.35,-282.344 562.946,-272.872"/>
<polygon fill="black" stroke="black" points="556.732,-264.923 566.436,-270.03 559.811,-268.862 562.891,-272.802 562.891,-272.802 562.891,-272.802 559.811,-268.862 559.345,-275.573 556.732,-264.923 556.732,-264.923"/>
</g>
<!-- ndTargetOperatingSystem -->
<g id="node3" class="node"><title>ndTargetOperatingSystem</title>
<polygon fill="none" stroke="black" points="158.5,-858.5 158.5,-987.5 505.5,-987.5 505.5,-858.5 158.5,-858.5"/>
<text text-anchor="middle" x="332" y="-972.3" font-family="Times,serif" font-size="14.00">&lt;&lt;&lt;Structure&gt;&gt;&gt;</text>
<text text-anchor="middle" x="332" y="-957.3" font-family="Times,serif" font-size="14.00">TargetOperatingSystem</text>
<polyline fill="none" stroke="black" points="158.5,-949.5 505.5,-949.5 "/>
<text text-anchor="middle" x="332" y="-934.3" font-family="Times,serif" font-size="14.00">&#45; family: String</text>
<text text-anchor="middle" x="332" y="-919.3" font-family="Times,serif" font-size="14.00">&#45; os: String</text>
<polyline fill="none" stroke="black" points="158.5,-911.5 505.5,-911.5 "/>
<text text-anchor="middle" x="332" y="-896.3" font-family="Times,serif" font-size="14.00">+ new(family: String, os: String) &#45;&gt; TargetOperatingSystem</text>
<text text-anchor="middle" x="332" y="-881.3" font-family="Times,serif" font-size="14.00">+ family(&amp;self) &#45;&gt; &amp;str</text>
<text text-anchor="middle" x="332" y="-866.3" font-family="Times,serif" font-size="14.00">+ os(&amp;self) &#45;&gt; &amp;str</text>
</g>
<!-- ndTargetOperatingSystem&#45;&gt;ndBuildBuilder -->
<g id="edge2" class="edge"><title>ndTargetOperatingSystem&#45;&gt;ndBuildBuilder</title>
<path fill="none" stroke="black" stroke-dasharray="5,2" d="M289.434,-858.487C283.476,-846.794 278.276,-834.363 275,-822 246.539,-714.596 253.603,-681.031 275,-572 295.396,-468.069 340.583,-357.712 380.451,-273.708"/>
<polygon fill="black" stroke="black" points="384.786,-264.632 384.536,-275.595 382.631,-269.144 380.476,-273.656 380.476,-273.656 380.476,-273.656 382.631,-269.144 376.415,-271.716 384.786,-264.632 384.786,-264.632"/>
</g>
<!-- ndTarget -->
<g id="node4" class="node"><title>ndTarget</title>
<polygon fill="none" stroke="black" points="284.5,-580 284.5,-814 533.5,-814 533.5,-580 284.5,-580"/>
<text text-anchor="middle" x="409" y="-798.8" font-family="Times,serif" font-size="14.00">&lt;&lt;&lt;Structure&gt;&gt;&gt;</text>
<text text-anchor="middle" x="409" y="-783.8" font-family="Times,serif" font-size="14.00">Target</text>
<polyline fill="none" stroke="black" points="284.5,-776 533.5,-776 "/>
<text text-anchor="middle" x="409" y="-760.8" font-family="Times,serif" font-size="14.00">&#45; triple: TargetTriple</text>
<text text-anchor="middle" x="409" y="-745.8" font-family="Times,serif" font-size="14.00">&#45; env: TargetEnv</text>
<text text-anchor="middle" x="409" y="-730.8" font-family="Times,serif" font-size="14.00">&#45; os: TargetOperatingSystem</text>
<text text-anchor="middle" x="409" y="-715.8" font-family="Times,serif" font-size="14.00">&#45; arch: TargetArchitecture</text>
<text text-anchor="middle" x="409" y="-700.8" font-family="Times,serif" font-size="14.00">&#45; endian: Endian</text>
<text text-anchor="middle" x="409" y="-685.8" font-family="Times,serif" font-size="14.00">&#45; pointer_width: PointerWidth</text>
<polyline fill="none" stroke="black" points="284.5,-678 533.5,-678 "/>
<text text-anchor="middle" x="409" y="-662.8" font-family="Times,serif" font-size="14.00">+ triple(&amp;self) &#45;&gt; &amp;TargetTriple</text>
<text text-anchor="middle" x="409" y="-647.8" font-family="Times,serif" font-size="14.00">+ env(&amp;self) &#45;&gt; &amp;TargetEnv</text>
<text text-anchor="middle" x="409" y="-632.8" font-family="Times,serif" font-size="14.00">+ os(&amp;self) &#45;&gt; &amp;TargetOperatingSystem</text>
<text text-anchor="middle" x="409" y="-617.8" font-family="Times,serif" font-size="14.00">+ arch(&amp;self) &#45;&gt; &amp;TargetArchitecture</text>
<text text-anchor="middle" x="409" y="-602.8" font-family="Times,serif" font-size="14.00">+ endian(&amp;self) &#45;&gt; &amp;Endian</text>
<text text-anchor="middle" x="409" y="-587.8" font-family="Times,serif" font-size="14.00">+ pointer_width(&amp;self) &#45;&gt; &amp;PointerWidth</text>
</g>
<!-- ndTargetOperatingSystem&#45;&gt;ndTarget -->
<g id="edge3" class="edge"><title>ndTargetOperatingSystem&#45;&gt;ndTarget</title>
<path fill="none" stroke="black" d="M353.859,-858.41C357.39,-848.138 361.152,-837.194 364.989,-826.032"/>
<polygon fill="black" stroke="black" points="365.107,-825.69 363.274,-818.715 369.008,-814.342 370.84,-821.316 365.107,-825.69"/>
</g>
<!-- ndTarget&#45;&gt;ndBuild -->
<g id="edge4" class="edge"><title>ndTarget&#45;&gt;ndBuild</title>
<path fill="none" stroke="black" d="M521.072,-579.941C532.33,-568.282 543.797,-556.407 555.142,-544.659"/>
<polygon fill="black" stroke="black" points="555.452,-544.338 556.742,-537.243 563.787,-535.705 562.497,-542.8 555.452,-544.338"/>
</g>
<!-- ndTarget&#45;&gt;ndBuildBuilder -->
<g id="edge5" class="edge"><title>ndTarget&#45;&gt;ndBuildBuilder</title>
<path fill="none" stroke="black" d="M417.967,-579.754C424.076,-501.062 432.403,-394.759 440,-301 440.641,-293.085 441.304,-284.961 441.978,-276.761"/>
<polygon fill="black" stroke="black" points="441.985,-276.667 438.491,-270.359 442.97,-264.707 446.464,-271.015 441.985,-276.667"/>
</g>
<!-- ndCompilation -->
<g id="node5" class="node"><title>ndCompilation</title>
<polygon fill="none" stroke="black" points="552,-580 552,-814 800,-814 800,-580 552,-580"/>
<text text-anchor="middle" x="676" y="-798.8" font-family="Times,serif" font-size="14.00">&lt;&lt;&lt;Structure&gt;&gt;&gt;</text>
<text text-anchor="middle" x="676" y="-783.8" font-family="Times,serif" font-size="14.00">Compilation</text>
<polyline fill="none" stroke="black" points="552,-776 800,-776 "/>
<text text-anchor="middle" x="676" y="-760.8" font-family="Times,serif" font-size="14.00">&#45; debug: bool</text>
<text text-anchor="middle" x="676" y="-745.8" font-family="Times,serif" font-size="14.00">&#45; features: Vec&lt;String&gt;</text>
<text text-anchor="middle" x="676" y="-730.8" font-family="Times,serif" font-size="14.00">&#45; opt_level: CompileOptLevel</text>
<text text-anchor="middle" x="676" y="-715.8" font-family="Times,serif" font-size="14.00">&#45; rustc_version: RustcVersion</text>
<text text-anchor="middle" x="676" y="-700.8" font-family="Times,serif" font-size="14.00">&#45; host: TargetTriple</text>
<text text-anchor="middle" x="676" y="-685.8" font-family="Times,serif" font-size="14.00">&#45; profile: BuildProfile</text>
<polyline fill="none" stroke="black" points="552,-678 800,-678 "/>
<text text-anchor="middle" x="676" y="-662.8" font-family="Times,serif" font-size="14.00">+ debug(&amp;self) &#45;&gt; bool</text>
<text text-anchor="middle" x="676" y="-647.8" font-family="Times,serif" font-size="14.00">+ features(&amp;self) &#45;&gt; &amp;Vec&lt;String&gt;</text>
<text text-anchor="middle" x="676" y="-632.8" font-family="Times,serif" font-size="14.00">+ opt_level(&amp;self) &#45;&gt; &amp;CompileOptLevel</text>
<text text-anchor="middle" x="676" y="-617.8" font-family="Times,serif" font-size="14.00">+ rustc_version(&amp;self) &#45;&gt; &amp;RustcVersion</text>
<text text-anchor="middle" x="676" y="-602.8" font-family="Times,serif" font-size="14.00">+ host_triple(&amp;self) &#45;&gt; &amp;TargetTriple</text>
<text text-anchor="middle" x="676" y="-587.8" font-family="Times,serif" font-size="14.00">+ profile(&amp;self) &#45;&gt; &amp;BuildProfile</text>
</g>
<!-- ndCompilation&#45;&gt;ndBuild -->
<g id="edge6" class="edge"><title>ndCompilation&#45;&gt;ndBuild</title>
<path fill="none" stroke="black" d="M676,-579.941C676,-569.311 676,-558.501 676,-547.771"/>
<polygon fill="black" stroke="black" points="676,-547.705 672,-541.705 676,-535.705 680,-541.705 676,-547.705"/>
</g>
<!-- ndCompilation&#45;&gt;ndBuildBuilder -->
<g id="edge7" class="edge"><title>ndCompilation&#45;&gt;ndBuildBuilder</title>
<path fill="none" stroke="black" d="M552.883,-579.924C549.259,-577.203 545.628,-574.556 542,-572 513.724,-552.078 491.623,-565.148 473,-536 446.244,-494.123 443.334,-374.757 446.043,-276.81"/>
<polygon fill="black" stroke="black" points="446.047,-276.668 442.23,-270.55 446.41,-264.673 450.227,-270.792 446.047,-276.668"/>
</g>
<!-- ndPackage -->
<g id="node6" class="node"><title>ndPackage</title>
<polygon fill="none" stroke="black" points="818,-572.5 818,-821.5 1538,-821.5 1538,-572.5 818,-572.5"/>
<text text-anchor="middle" x="1178" y="-806.3" font-family="Times,serif" font-size="14.00">&lt;&lt;&lt;Structure&gt;&gt;&gt;</text>
<text text-anchor="middle" x="1178" y="-791.3" font-family="Times,serif" font-size="14.00">Package</text>
<polyline fill="none" stroke="black" points="818,-783.5 1538,-783.5 "/>
<text text-anchor="middle" x="1178" y="-768.3" font-family="Times,serif" font-size="14.00">&#45; id: PackageId</text>
<text text-anchor="middle" x="1178" y="-753.3" font-family="Times,serif" font-size="14.00">&#45; authors: Vec&lt;String&gt;</text>
<text text-anchor="middle" x="1178" y="-738.3" font-family="Times,serif" font-size="14.00">&#45; description: String</text>
<text text-anchor="middle" x="1178" y="-723.3" font-family="Times,serif" font-size="14.00">&#45; homepage: String</text>
<text text-anchor="middle" x="1178" y="-708.3" font-family="Times,serif" font-size="14.00">&#45; dependencies: Vec&lt;PackageId&gt;</text>
<polyline fill="none" stroke="black" points="818,-700.5 1538,-700.5 "/>
<text text-anchor="middle" x="1178" y="-685.3" font-family="Times,serif" font-size="14.00">+ new(id: PackageId, authors: Vec&lt;String&gt;, description: String, homepage: String, dependencies: Vec&lt;PackageId&gt;) &#45;&gt; Package</text>
<text text-anchor="middle" x="1178" y="-670.3" font-family="Times,serif" font-size="14.00">+ id(&amp;self) &#45;&gt; &amp;PackageId</text>
<text text-anchor="middle" x="1178" y="-655.3" font-family="Times,serif" font-size="14.00">+ name(&amp;self) &#45;&gt; &amp;str</text>
<text text-anchor="middle" x="1178" y="-640.3" font-family="Times,serif" font-size="14.00">+ version(&amp;self) &#45;&gt; &amp;semver::Version</text>
<text text-anchor="middle" x="1178" y="-625.3" font-family="Times,serif" font-size="14.00">+ authors(&amp;self) &#45;&gt; &amp;[String]</text>
<text text-anchor="middle" x="1178" y="-610.3" font-family="Times,serif" font-size="14.00">+ description(&amp;self) &#45;&gt; &amp;str</text>
<text text-anchor="middle" x="1178" y="-595.3" font-family="Times,serif" font-size="14.00">+ homepage(&amp;self) &#45;&gt; &amp;str</text>
<text text-anchor="middle" x="1178" y="-580.3" font-family="Times,serif" font-size="14.00">+ dependencies(&amp;self) &#45;&gt; &amp;[PackageId]</text>
</g>
<!-- ndPackage&#45;&gt;ndBuild -->
<g id="edge8" class="edge"><title>ndPackage&#45;&gt;ndBuild</title>
<path fill="none" stroke="black" d="M953.429,-572.307C929.097,-558.905 904.43,-545.318 880.356,-532.059"/>
<polygon fill="black" stroke="black" points="880.221,-531.985 873.036,-532.594 869.71,-526.195 876.896,-525.586 880.221,-531.985"/>
</g>
<!-- ndPackage&#45;&gt;ndBuildBuilder -->
<g id="edge9" class="edge"><title>ndPackage&#45;&gt;ndBuildBuilder</title>
<path fill="none" stroke="black" d="M1109.06,-572.437C1055.65,-486.337 974.581,-374.229 878,-301 864.1,-290.461 849.452,-280.495 834.286,-271.082"/>
<polygon fill="black" stroke="black" points="833.961,-270.885 826.756,-271.188 823.706,-264.654 830.911,-264.351 833.961,-270.885"/>
</g>
<!-- ndPackageId -->
<g id="node7" class="node"><title>ndPackageId</title>
<polygon fill="none" stroke="black" points="1002,-858.5 1002,-987.5 1354,-987.5 1354,-858.5 1002,-858.5"/>
<text text-anchor="middle" x="1178" y="-972.3" font-family="Times,serif" font-size="14.00">&lt;&lt;&lt;Structure&gt;&gt;&gt;</text>
<text text-anchor="middle" x="1178" y="-957.3" font-family="Times,serif" font-size="14.00">PackageId</text>
<polyline fill="none" stroke="black" points="1002,-949.5 1354,-949.5 "/>
<text text-anchor="middle" x="1178" y="-934.3" font-family="Times,serif" font-size="14.00">&#45; name: String</text>
<text text-anchor="middle" x="1178" y="-919.3" font-family="Times,serif" font-size="14.00">&#45; version: semver::Version</text>
<polyline fill="none" stroke="black" points="1002,-911.5 1354,-911.5 "/>
<text text-anchor="middle" x="1178" y="-896.3" font-family="Times,serif" font-size="14.00">+ new(name: String, version: semver::Version) &#45;&gt; PackageId</text>
<text text-anchor="middle" x="1178" y="-881.3" font-family="Times,serif" font-size="14.00">+ name(&amp;self) &#45;&gt; &amp;str</text>
<text text-anchor="middle" x="1178" y="-866.3" font-family="Times,serif" font-size="14.00">+ version(&amp;self) &#45;&gt; &amp;semver::Version</text>
</g>
<!-- ndPackageId&#45;&gt;ndPackage -->
<g id="edge10" class="edge"><title>ndPackageId&#45;&gt;ndPackage</title>
<path fill="none" stroke="black" stroke-dasharray="5,2" d="M1178,-858.41C1178,-850.498 1178,-842.186 1178,-833.684"/>
<polygon fill="black" stroke="black" points="1178,-833.558 1174,-827.558 1178,-821.558 1182,-827.558 1178,-833.558"/>
</g>
</g>
</svg>
